<svg width="389" height="578" viewBox="0 0 389 578" fill="none" xmlns="http://www.w3.org/2000/svg">
<path fill-rule="evenodd" clip-rule="evenodd" d="M388.609 194.041C388.609 301.184 301.753 388.041 194.609 388.041V306.9C256.94 306.9 307.469 256.371 307.469 194.041C307.469 131.71 256.94 81.1812 194.609 81.1812C132.278 81.1812 81.7495 131.71 81.7495 194.041H0.609375C0.609375 86.8975 87.4661 0.0407715 194.609 0.0407715C301.753 0.0407715 388.609 86.8975 388.609 194.041Z" fill="white"/>
<path fill-rule="evenodd" clip-rule="evenodd" d="M388.609 194.041C388.609 301.184 301.753 388.041 194.609 388.041V306.9C256.94 306.9 307.469 256.371 307.469 194.041C307.469 131.71 256.94 81.1812 194.609 81.1812C132.278 81.1812 81.7495 131.71 81.7495 194.041H0.609375C0.609375 86.8975 87.4661 0.0407715 194.609 0.0407715C301.753 0.0407715 388.609 86.8975 388.609 194.041Z" fill="white"/>
<path fill-rule="evenodd" clip-rule="evenodd" d="M388.609 194.041C388.609 301.184 301.753 388.041 194.609 388.041V306.9C256.94 306.9 307.469 256.371 307.469 194.041C307.469 131.71 256.94 81.1812 194.609 81.1812C132.278 81.1812 81.7495 131.71 81.7495 194.041H0.609375C0.609375 86.8975 87.4661 0.0407715 194.609 0.0407715C301.753 0.0407715 388.609 86.8975 388.609 194.041Z" fill="white"/>
<path fill-rule="evenodd" clip-rule="evenodd" d="M194.249 576.629L194.52 577.091L267.97 441.633C267.97 441.633 240.869 455.854 194.784 455.933C194.606 455.933 194.427 455.933 194.249 455.933V576.629Z" fill="white"/>
<path fill-rule="evenodd" clip-rule="evenodd" d="M194.97 576.629L194.699 577.091L121.249 441.633C121.249 441.633 148.351 455.854 194.435 455.933C194.614 455.933 194.792 455.933 194.97 455.933V576.629Z" fill="white"/>
</svg>
